<svg width="552" height="1032" xmlns="http://www.w3.org/2000/svg" xmlns:xlink="http://www.w3.org/1999/xlink" xml:space="preserve" overflow="hidden"><g transform="translate(-204 -40)"><g><rect x="342.5" y="42.5" width="194" height="977" stroke="#042433" stroke-width="3" stroke-linecap="butt" stroke-linejoin="miter" stroke-miterlimit="8" stroke-opacity="1" fill="#83CBEB" fill-opacity="1"/><path d="M435.192 62.4956 435.192 71.601 440.324 71.601C441.754 71.601 442.911 71.2348 443.796 70.5024 444.681 69.77 445.123 68.6596 445.123 67.1714 445.123 65.5776 444.678 64.3999 443.787 63.6382 442.897 62.8764 441.742 62.4956 440.324 62.4956ZM452.479 59.894 455.678 59.894 455.678 74.3784C455.678 76.8393 456.214 78.5942 457.286 79.643 458.359 80.6919 459.908 81.2163 461.936 81.2163 463.975 81.2163 465.528 80.6919 466.594 79.643 467.66 78.5942 468.194 76.8393 468.194 74.3784L468.194 59.894 471.393 59.894 471.393 74.7651C471.393 76.5229 471.07 78.0903 470.426 79.4673 469.781 80.8442 468.765 81.9223 467.376 82.7016 465.987 83.4809 464.168 83.8706 461.918 83.8706 459.703 83.8706 457.899 83.4809 456.504 82.7016 455.11 81.9223 454.09 80.8442 453.445 79.4673 452.801 78.0903 452.479 76.5229 452.479 74.7651ZM432.028 59.894 440.57 59.894C442.035 59.894 443.354 60.1723 444.526 60.729 445.697 61.2856 446.623 62.1059 447.303 63.1899 447.983 64.2739 448.322 65.601 448.322 67.1714 448.322 68.7065 447.983 69.9956 447.303 71.0385 446.623 72.0815 445.697 72.8725 444.526 73.4116 443.354 73.9507 442.035 74.2202 440.57 74.2202L435.192 74.2202 435.192 83.5542 432.028 83.5542ZM417.117 59.5776C418.735 59.5776 420.261 59.8589 421.696 60.4214 423.132 60.9839 424.327 61.8423 425.282 62.9966 426.237 64.1508 426.797 65.6069 426.961 67.3647L423.779 67.3647C423.639 66.1811 423.243 65.2055 422.593 64.438 421.943 63.6704 421.14 63.0991 420.185 62.7241 419.23 62.3491 418.207 62.1616 417.117 62.1616 415.219 62.1616 413.681 62.5952 412.503 63.4624 411.325 64.3296 410.467 65.4839 409.928 66.9253 409.389 68.3667 409.119 69.9721 409.119 71.7417 409.119 73.4995 409.389 75.0991 409.928 76.5405 410.467 77.9819 411.325 79.1274 412.503 79.977 413.681 80.8266 415.219 81.2514 417.117 81.2514 419.039 81.2514 420.598 80.7768 421.793 79.8276 422.988 78.8784 423.68 77.4604 423.867 75.5737L427.067 75.5737C426.879 77.437 426.334 78.9809 425.432 80.2055 424.529 81.4301 423.363 82.3471 421.934 82.9565 420.504 83.5659 418.899 83.8706 417.117 83.8706 414.668 83.8706 412.606 83.3549 410.93 82.3237 409.254 81.2924 407.986 79.8686 407.124 78.0522 406.263 76.2358 405.832 74.1323 405.832 71.7417 405.832 69.351 406.263 67.2417 407.124 65.4135 407.986 63.5854 409.254 62.1557 410.93 61.1245 412.606 60.0932 414.668 59.5776 417.117 59.5776Z" stroke="#000000" stroke-width="2" stroke-linecap="butt" stroke-linejoin="round" stroke-miterlimit="10" stroke-opacity="1" fill="#FFFFFF" fill-rule="evenodd" fill-opacity="1"/><text fill="#000000" fill-opacity="0" font-family="Arial,Arial_MSFontService,Arial" font-size="24.293" direction="ltr" writing-mode="lr-tb" x="405.832" y="80.834">CPU</text><rect x="359.5" y="102.5" width="161" height="892" stroke="#042433" stroke-width="3" stroke-linecap="butt" stroke-linejoin="miter" stroke-miterlimit="8" stroke-opacity="1" fill="#C2F1C8" fill-opacity="1"/><path d="M428.992 121.668C427.094 121.668 425.556 122.099 424.378 122.96 423.2 123.822 422.342 124.976 421.803 126.423 421.264 127.87 420.994 129.479 420.994 131.248 420.994 133.006 421.264 134.609 421.803 136.056 422.342 137.503 423.2 138.655 424.378 139.51 425.556 140.365 427.094 140.793 428.992 140.793 430.891 140.793 432.426 140.365 433.598 139.51 434.77 138.655 435.628 137.503 436.173 136.056 436.718 134.609 436.99 133.006 436.99 131.248 436.99 129.479 436.718 127.87 436.173 126.423 435.628 124.976 434.77 123.822 433.598 122.96 432.426 122.099 430.891 121.668 428.992 121.668ZM451.973 119.084C453.496 119.084 454.891 119.33 456.156 119.823 457.422 120.315 458.433 121.053 459.189 122.037 459.944 123.022 460.322 124.246 460.322 125.711L457.158 125.711C457.17 124.375 456.678 123.365 455.682 122.679 454.686 121.993 453.455 121.651 451.99 121.651 450.479 121.651 449.304 121.952 448.466 122.556 447.628 123.159 447.209 124.041 447.209 125.201 447.209 125.893 447.391 126.47 447.754 126.933 448.117 127.396 448.741 127.815 449.626 128.19 450.511 128.565 451.744 128.957 453.326 129.367 455.154 129.86 456.64 130.387 457.782 130.949 458.925 131.512 459.766 132.233 460.305 133.112 460.844 133.99 461.113 135.145 461.113 136.574 461.113 138.098 460.732 139.361 459.971 140.363 459.209 141.365 458.172 142.117 456.859 142.621 455.547 143.125 454.065 143.377 452.412 143.377 450.725 143.377 449.201 143.119 447.842 142.604 446.482 142.088 445.401 141.28 444.599 140.178 443.796 139.076 443.395 137.647 443.395 135.889L446.576 135.889C446.576 137.143 446.849 138.127 447.394 138.842 447.939 139.557 448.662 140.061 449.565 140.354 450.467 140.647 451.457 140.793 452.535 140.793 453.531 140.793 454.442 140.644 455.269 140.345 456.095 140.046 456.754 139.595 457.246 138.991 457.738 138.388 457.984 137.612 457.984 136.662 457.984 135.842 457.791 135.168 457.404 134.641 457.018 134.114 456.376 133.654 455.48 133.261 454.583 132.868 453.379 132.479 451.867 132.092 450.086 131.623 448.621 131.111 447.473 130.554 446.324 129.997 445.472 129.303 444.915 128.471 444.358 127.639 444.08 126.584 444.08 125.307 444.08 123.959 444.397 122.825 445.029 121.906 445.662 120.986 446.57 120.285 447.754 119.805 448.938 119.324 450.344 119.084 451.973 119.084ZM428.992 119.084C431.465 119.084 433.533 119.6 435.197 120.631 436.861 121.662 438.118 123.092 438.968 124.92 439.817 126.748 440.242 128.858 440.242 131.248 440.242 133.639 439.817 135.742 438.968 137.559 438.118 139.375 436.861 140.799 435.197 141.83 433.533 142.862 431.465 143.377 428.992 143.377 426.52 143.377 424.445 142.862 422.77 141.83 421.094 140.799 419.831 139.375 418.982 137.559 418.132 135.742 417.707 133.639 417.707 131.248 417.707 128.858 418.132 126.748 418.982 124.92 419.831 123.092 421.094 121.662 422.77 120.631 424.445 119.6 426.52 119.084 428.992 119.084Z" stroke="#000000" stroke-width="2" stroke-linecap="butt" stroke-linejoin="round" stroke-miterlimit="10" stroke-opacity="1" fill="#FFFFFF" fill-rule="evenodd" fill-opacity="1"/><text fill="#000000" fill-opacity="0" font-family="Arial,Arial_MSFontService,Arial" font-size="24.293" direction="ltr" writing-mode="lr-tb" x="417.707" y="140.341">OS</text><rect x="381.5" y="161.5" width="116" height="150" stroke="#042433" stroke-width="3" stroke-linecap="butt" stroke-linejoin="miter" stroke-miterlimit="8" stroke-opacity="1" fill="#F6C6AD" fill-opacity="1"/><path d="M445.482 211.448C444.252 211.448 443.276 211.732 442.556 212.3 441.835 212.869 441.316 213.651 441 214.647 440.684 215.643 440.525 216.774 440.525 218.04 440.525 219.282 440.684 220.392 441 221.371 441.316 222.349 441.835 223.117 442.556 223.674 443.276 224.23 444.252 224.508 445.482 224.508 446.748 224.508 447.756 224.23 448.506 223.674 449.256 223.117 449.795 222.349 450.123 221.371 450.451 220.392 450.615 219.282 450.615 218.04 450.615 216.774 450.451 215.643 450.123 214.647 449.795 213.651 449.256 212.869 448.506 212.3 447.756 211.732 446.748 211.448 445.482 211.448ZM435.168 209.233 435.519 209.233 435.519 211.923 435.115 211.923C434.26 211.923 433.51 212.034 432.865 212.257 432.221 212.479 431.658 212.787 431.178 213.179 430.697 213.572 430.269 214.026 429.894 214.542L429.894 226.565 426.959 226.565 426.959 209.444 429.719 209.444 429.824 212.362C430.305 211.471 430.972 210.727 431.828 210.13 432.683 209.532 433.797 209.233 435.168 209.233ZM465.18 209.145C466.504 209.145 467.696 209.362 468.757 209.796 469.817 210.229 470.664 210.883 471.297 211.756 471.93 212.629 472.264 213.733 472.299 215.069L469.398 215.069C469.328 213.967 468.93 213.1 468.203 212.467 467.477 211.835 466.486 211.518 465.232 211.518 463.568 211.518 462.326 212.09 461.506 213.232 460.686 214.375 460.275 215.977 460.275 218.04 460.275 219.411 460.457 220.574 460.82 221.529 461.184 222.484 461.734 223.216 462.473 223.726 463.211 224.236 464.131 224.491 465.232 224.491 466.486 224.491 467.506 224.166 468.291 223.515 469.076 222.865 469.486 221.913 469.522 220.659L472.422 220.659C472.387 222.042 472.05 223.193 471.411 224.113 470.773 225.033 469.911 225.721 468.827 226.178 467.743 226.635 466.527 226.864 465.18 226.864 463.633 226.864 462.262 226.539 461.066 225.888 459.871 225.238 458.937 224.259 458.263 222.953 457.589 221.646 457.252 220.008 457.252 218.04 457.252 216.071 457.583 214.427 458.245 213.109 458.907 211.791 459.833 210.8 461.023 210.138 462.212 209.476 463.598 209.145 465.18 209.145ZM445.482 209.11C447.193 209.11 448.655 209.467 449.868 210.182 451.081 210.897 452.013 211.92 452.663 213.25 453.314 214.58 453.639 216.176 453.639 218.04 453.639 219.856 453.314 221.424 452.663 222.742 452.013 224.06 451.081 225.074 449.868 225.783 448.655 226.492 447.193 226.846 445.482 226.846 443.807 226.846 442.371 226.492 441.176 225.783 439.981 225.074 439.069 224.06 438.442 222.742 437.815 221.424 437.502 219.856 437.502 218.04 437.502 216.176 437.815 214.58 438.442 213.25 439.069 211.92 439.981 210.897 441.176 210.182 442.371 209.467 443.807 209.11 445.482 209.11ZM409.987 205.507 409.987 214.612 415.119 214.612C416.549 214.612 417.706 214.246 418.591 213.513 419.476 212.781 419.918 211.671 419.918 210.182 419.918 208.589 419.473 207.411 418.582 206.649 417.692 205.887 416.537 205.507 415.119 205.507ZM406.822 202.905 415.365 202.905C416.83 202.905 418.149 203.183 419.321 203.74 420.492 204.297 421.418 205.117 422.098 206.201 422.778 207.285 423.117 208.612 423.117 210.182 423.117 211.717 422.778 213.007 422.098 214.049 421.418 215.092 420.492 215.883 419.321 216.423 418.149 216.962 416.83 217.231 415.365 217.231L409.987 217.231 409.987 226.565 406.822 226.565Z" stroke="#000000" stroke-width="2" stroke-linecap="butt" stroke-linejoin="round" stroke-miterlimit="10" stroke-opacity="1" fill="#FFFFFF" fill-rule="evenodd" fill-opacity="1"/><text fill="#000000" fill-opacity="0" font-family="Arial,Arial_MSFontService,Arial" font-size="23.959" direction="ltr" writing-mode="lr-tb" x="406.822" y="223.869">Proc </text><path d="M439.091 248.051 435.048 259.284 443.099 259.284ZM437.439 244.905 440.779 244.905 449.515 268.565 446.245 268.565 443.995 261.938 434.187 261.938 431.831 268.565 428.579 268.565Z" stroke="#000000" stroke-width="2" stroke-linecap="butt" stroke-linejoin="round" stroke-miterlimit="10" stroke-opacity="1" fill="#FFFFFF" fill-rule="evenodd" fill-opacity="1"/><text fill="#000000" fill-opacity="0" font-family="Arial,Arial_MSFontService,Arial" font-size="23.6602" direction="ltr" writing-mode="lr-tb" x="428.579" y="265.608">A</text><rect x="381.5" y="326.5" width="116" height="150" stroke="#042433" stroke-width="3" stroke-linecap="butt" stroke-linejoin="miter" stroke-miterlimit="8" stroke-opacity="1" fill="#F6C6AD" fill-opacity="1"/><path d="M445.482 376.625C444.252 376.625 443.276 376.909 442.556 377.477 441.835 378.046 441.316 378.828 441 379.824 440.684 380.82 440.525 381.951 440.525 383.216 440.525 384.459 440.684 385.569 441 386.547 441.316 387.526 441.835 388.294 442.556 388.85 443.276 389.407 444.252 389.685 445.482 389.685 446.748 389.685 447.756 389.407 448.506 388.85 449.256 388.294 449.795 387.526 450.123 386.547 450.451 385.569 450.615 384.459 450.615 383.216 450.615 381.951 450.451 380.82 450.123 379.824 449.795 378.828 449.256 378.046 448.506 377.477 447.756 376.909 446.748 376.625 445.482 376.625ZM435.168 374.41 435.519 374.41 435.519 377.099 435.115 377.099C434.26 377.099 433.51 377.211 432.865 377.433 432.221 377.656 431.658 377.964 431.178 378.356 430.697 378.749 430.269 379.203 429.894 379.718L429.894 391.742 426.959 391.742 426.959 374.621 429.719 374.621 429.824 377.539C430.305 376.648 430.972 375.904 431.828 375.306 432.683 374.709 433.797 374.41 435.168 374.41ZM465.18 374.322C466.504 374.322 467.696 374.539 468.757 374.972 469.817 375.406 470.664 376.059 471.297 376.932 471.93 377.805 472.264 378.91 472.299 380.246L469.398 380.246C469.328 379.144 468.93 378.277 468.203 377.644 467.477 377.011 466.486 376.695 465.232 376.695 463.568 376.695 462.326 377.266 461.506 378.409 460.686 379.551 460.275 381.154 460.275 383.216 460.275 384.588 460.457 385.751 460.82 386.706 461.184 387.661 461.734 388.393 462.473 388.903 463.211 389.413 464.131 389.668 465.232 389.668 466.486 389.668 467.506 389.342 468.291 388.692 469.076 388.042 469.486 387.089 469.522 385.836L472.422 385.836C472.387 387.218 472.05 388.37 471.411 389.29 470.773 390.21 469.911 390.898 468.827 391.355 467.743 391.812 466.527 392.041 465.18 392.041 463.633 392.041 462.262 391.715 461.066 391.065 459.871 390.415 458.937 389.436 458.263 388.13 457.589 386.823 457.252 385.185 457.252 383.216 457.252 381.248 457.583 379.604 458.245 378.286 458.907 376.967 459.833 375.977 461.023 375.315 462.212 374.653 463.598 374.322 465.18 374.322ZM445.482 374.287C447.193 374.287 448.655 374.644 449.868 375.359 451.081 376.074 452.013 377.096 452.663 378.426 453.314 379.756 453.639 381.353 453.639 383.216 453.639 385.033 453.314 386.6 452.663 387.919 452.013 389.237 451.081 390.251 449.868 390.96 448.655 391.669 447.193 392.023 445.482 392.023 443.807 392.023 442.371 391.669 441.176 390.96 439.981 390.251 439.069 389.237 438.442 387.919 437.815 386.6 437.502 385.033 437.502 383.216 437.502 381.353 437.815 379.756 438.442 378.426 439.069 377.096 439.981 376.074 441.176 375.359 442.371 374.644 443.807 374.287 445.482 374.287ZM409.987 370.683 409.987 379.789 415.119 379.789C416.549 379.789 417.706 379.422 418.591 378.69 419.476 377.958 419.918 376.847 419.918 375.359 419.918 373.765 419.473 372.588 418.582 371.826 417.692 371.064 416.537 370.683 415.119 370.683ZM406.822 368.082 415.365 368.082C416.83 368.082 418.149 368.36 419.321 368.917 420.492 369.473 421.418 370.294 422.098 371.378 422.778 372.462 423.117 373.789 423.117 375.359 423.117 376.894 422.778 378.183 422.098 379.226 421.418 380.269 420.492 381.06 419.321 381.599 418.149 382.138 416.83 382.408 415.365 382.408L409.987 382.408 409.987 391.742 406.822 391.742Z" stroke="#000000" stroke-width="2" stroke-linecap="butt" stroke-linejoin="round" stroke-miterlimit="10" stroke-opacity="1" fill="#FFFFFF" fill-rule="evenodd" fill-opacity="1"/><text fill="#000000" fill-opacity="0" font-family="Arial,Arial_MSFontService,Arial" font-size="23.959" direction="ltr" writing-mode="lr-tb" x="406.822" y="389.046">Proc </text><path d="M434.447 422.703 434.447 431.105 439.579 431.105C440.575 431.105 441.495 430.979 442.339 430.727 443.183 430.475 443.857 430.03 444.361 429.391 444.865 428.753 445.116 427.871 445.116 426.746 445.116 425.386 444.624 424.373 443.64 423.705 442.656 423.037 441.302 422.703 439.579 422.703ZM434.447 412.683 434.447 420.136 438.859 420.136C440.382 420.136 441.545 419.788 442.348 419.09 443.151 418.393 443.552 417.453 443.552 416.269 443.552 415.472 443.37 414.807 443.007 414.274 442.644 413.741 442.114 413.342 441.416 413.079 440.719 412.815 439.866 412.683 438.859 412.683ZM431.283 410.082 438.876 410.082C441.255 410.082 443.157 410.562 444.58 411.523 446.004 412.484 446.716 413.949 446.716 415.918 446.716 417.16 446.367 418.267 445.67 419.24 444.973 420.213 444.05 420.845 442.902 421.138 444.542 421.408 445.849 422.061 446.822 423.098 447.794 424.135 448.281 425.416 448.281 426.939 448.281 428.369 447.964 429.59 447.331 430.604 446.699 431.618 445.743 432.394 444.466 432.933 443.189 433.472 441.577 433.742 439.632 433.742L431.283 433.742Z" stroke="#000000" stroke-width="2" stroke-linecap="butt" stroke-linejoin="round" stroke-miterlimit="10" stroke-opacity="1" fill="#FFFFFF" fill-rule="evenodd" fill-opacity="1"/><text fill="#000000" fill-opacity="0" font-family="Arial,Arial_MSFontService,Arial" font-size="23.6602" direction="ltr" writing-mode="lr-tb" x="431.283" y="430.784">B</text><rect x="381.5" y="491.5" width="116" height="150" stroke="#042433" stroke-width="3" stroke-linecap="butt" stroke-linejoin="miter" stroke-miterlimit="8" stroke-opacity="1" fill="#F6C6AD" fill-opacity="1"/><path d="M445.482 541.801C444.252 541.801 443.276 542.086 442.556 542.654 441.835 543.222 441.316 544.004 441 545.001 440.684 545.997 440.525 547.128 440.525 548.393 440.525 549.635 440.684 550.746 441 551.724 441.316 552.703 441.835 553.47 442.556 554.027 443.276 554.584 444.252 554.862 445.482 554.862 446.748 554.862 447.756 554.584 448.506 554.027 449.256 553.47 449.795 552.703 450.123 551.724 450.451 550.746 450.615 549.635 450.615 548.393 450.615 547.128 450.451 545.997 450.123 545.001 449.795 544.004 449.256 543.222 448.506 542.654 447.756 542.086 446.748 541.801 445.482 541.801ZM435.168 539.586 435.519 539.586 435.519 542.276 435.115 542.276C434.26 542.276 433.51 542.387 432.865 542.61 432.221 542.833 431.658 543.14 431.178 543.533 430.697 543.925 430.269 544.379 429.894 544.895L429.894 556.919 426.959 556.919 426.959 539.797 429.719 539.797 429.824 542.715C430.305 541.825 430.972 541.081 431.828 540.483 432.683 539.885 433.797 539.586 435.168 539.586ZM465.18 539.499C466.504 539.499 467.696 539.715 468.757 540.149 469.817 540.583 470.664 541.236 471.297 542.109 471.93 542.982 472.264 544.086 472.299 545.422L469.398 545.422C469.328 544.321 468.93 543.454 468.203 542.821 467.477 542.188 466.486 541.872 465.232 541.872 463.568 541.872 462.326 542.443 461.506 543.586 460.686 544.728 460.275 546.331 460.275 548.393 460.275 549.764 460.457 550.927 460.82 551.882 461.184 552.837 461.734 553.57 462.473 554.08 463.211 554.589 464.131 554.844 465.232 554.844 466.486 554.844 467.506 554.519 468.291 553.869 469.076 553.218 469.486 552.266 469.522 551.012L472.422 551.012C472.387 552.395 472.05 553.546 471.411 554.466 470.773 555.386 469.911 556.075 468.827 556.532 467.743 556.989 466.527 557.217 465.18 557.217 463.633 557.217 462.262 556.892 461.066 556.242 459.871 555.591 458.937 554.613 458.263 553.306 457.589 552 457.252 550.362 457.252 548.393 457.252 546.424 457.583 544.781 458.245 543.462 458.907 542.144 459.833 541.154 461.023 540.492 462.212 539.83 463.598 539.499 465.18 539.499ZM445.482 539.463C447.193 539.463 448.655 539.821 449.868 540.536 451.081 541.251 452.013 542.273 452.663 543.603 453.314 544.933 453.639 546.53 453.639 548.393 453.639 550.21 453.314 551.777 452.663 553.095 452.013 554.414 451.081 555.427 449.868 556.136 448.655 556.845 447.193 557.2 445.482 557.2 443.807 557.2 442.371 556.845 441.176 556.136 439.981 555.427 439.069 554.414 438.442 553.095 437.815 551.777 437.502 550.21 437.502 548.393 437.502 546.53 437.815 544.933 438.442 543.603 439.069 542.273 439.981 541.251 441.176 540.536 442.371 539.821 443.807 539.463 445.482 539.463ZM409.987 535.86 409.987 544.965 415.119 544.965C416.549 544.965 417.706 544.599 418.591 543.867 419.476 543.134 419.918 542.024 419.918 540.536 419.918 538.942 419.473 537.764 418.582 537.003 417.692 536.241 416.537 535.86 415.119 535.86ZM406.822 533.258 415.365 533.258C416.83 533.258 418.149 533.537 419.321 534.093 420.492 534.65 421.418 535.47 422.098 536.554 422.778 537.638 423.117 538.965 423.117 540.536 423.117 542.071 422.778 543.36 422.098 544.403 421.418 545.446 420.492 546.237 419.321 546.776 418.149 547.315 416.83 547.585 415.365 547.585L409.987 547.585 409.987 556.919 406.822 556.919Z" stroke="#000000" stroke-width="2" stroke-linecap="butt" stroke-linejoin="round" stroke-miterlimit="10" stroke-opacity="1" fill="#FFFFFF" fill-rule="evenodd" fill-opacity="1"/><text fill="#000000" fill-opacity="0" font-family="Arial,Arial_MSFontService,Arial" font-size="23.959" direction="ltr" writing-mode="lr-tb" x="406.822" y="554.222">Proc </text><path d="M439.742 574.942C441.36 574.942 442.886 575.223 444.321 575.786 445.757 576.348 446.952 577.207 447.907 578.361 448.862 579.515 449.422 580.971 449.586 582.729L446.404 582.729C446.264 581.545 445.868 580.57 445.218 579.802 444.568 579.035 443.765 578.463 442.81 578.088 441.855 577.713 440.832 577.526 439.742 577.526 437.844 577.526 436.306 577.96 435.128 578.827 433.95 579.694 433.092 580.848 432.553 582.29 432.014 583.731 431.744 585.336 431.744 587.106 431.744 588.864 432.014 590.463 432.553 591.905 433.092 593.346 433.95 594.492 435.128 595.341 436.306 596.191 437.844 596.616 439.742 596.616 441.664 596.616 443.223 596.141 444.418 595.192 445.613 594.243 446.305 592.825 446.492 590.938L449.692 590.938C449.504 592.801 448.959 594.345 448.057 595.57 447.154 596.794 445.988 597.711 444.559 598.321 443.129 598.93 441.524 599.235 439.742 599.235 437.293 599.235 435.231 598.719 433.555 597.688 431.879 596.657 430.611 595.233 429.749 593.417 428.888 591.6 428.457 589.497 428.457 587.106 428.457 584.715 428.888 582.606 429.749 580.778 430.611 578.95 431.879 577.52 433.555 576.489 435.231 575.458 437.293 574.942 439.742 574.942Z" stroke="#000000" stroke-width="2" stroke-linecap="butt" stroke-linejoin="round" stroke-miterlimit="10" stroke-opacity="1" fill="#FFFFFF" fill-rule="evenodd" fill-opacity="1"/><text fill="#000000" fill-opacity="0" font-family="Arial,Arial_MSFontService,Arial" font-size="24.293" direction="ltr" writing-mode="lr-tb" x="428.457" y="596.198">C</text><rect x="381.5" y="656.5" width="116" height="150" stroke="#042433" stroke-width="3" stroke-linecap="butt" stroke-linejoin="miter" stroke-miterlimit="8" stroke-opacity="1" fill="#F6C6AD" fill-opacity="1"/><path d="M445.482 706.977C444.252 706.977 443.276 707.262 442.556 707.83 441.835 708.398 441.316 709.18 441 710.177 440.684 711.173 440.525 712.304 440.525 713.569 440.525 714.811 440.684 715.922 441 716.9 441.316 717.879 441.835 718.646 442.556 719.203 443.276 719.76 444.252 720.038 445.482 720.038 446.748 720.038 447.756 719.76 448.506 719.203 449.256 718.646 449.795 717.879 450.123 716.9 450.451 715.922 450.615 714.811 450.615 713.569 450.615 712.304 450.451 711.173 450.123 710.177 449.795 709.18 449.256 708.398 448.506 707.83 447.756 707.262 446.748 706.977 445.482 706.977ZM435.168 704.763 435.519 704.763 435.519 707.452 435.115 707.452C434.26 707.452 433.51 707.563 432.865 707.786 432.221 708.009 431.658 708.316 431.178 708.709 430.697 709.101 430.269 709.555 429.894 710.071L429.894 722.095 426.959 722.095 426.959 704.973 429.719 704.973 429.824 707.891C430.305 707.001 430.972 706.257 431.828 705.659 432.683 705.061 433.797 704.763 435.168 704.763ZM465.18 704.675C466.504 704.675 467.696 704.891 468.757 705.325 469.817 705.759 470.664 706.412 471.297 707.285 471.93 708.158 472.264 709.263 472.299 710.598L469.398 710.598C469.328 709.497 468.93 708.63 468.203 707.997 467.477 707.364 466.486 707.048 465.232 707.048 463.568 707.048 462.326 707.619 461.506 708.762 460.686 709.904 460.275 711.507 460.275 713.569 460.275 714.94 460.457 716.103 460.82 717.058 461.184 718.013 461.734 718.746 462.473 719.256 463.211 719.765 464.131 720.02 465.232 720.02 466.486 720.02 467.506 719.695 468.291 719.045 469.076 718.394 469.486 717.442 469.522 716.188L472.422 716.188C472.387 717.571 472.05 718.722 471.411 719.642 470.773 720.562 469.911 721.251 468.827 721.708 467.743 722.165 466.527 722.393 465.18 722.393 463.633 722.393 462.262 722.068 461.066 721.418 459.871 720.767 458.937 719.789 458.263 718.482 457.589 717.176 457.252 715.538 457.252 713.569 457.252 711.6 457.583 709.957 458.245 708.638 458.907 707.32 459.833 706.33 461.023 705.668 462.212 705.006 463.598 704.675 465.18 704.675ZM445.482 704.639C447.193 704.639 448.655 704.997 449.868 705.712 451.081 706.427 452.013 707.449 452.663 708.779 453.314 710.109 453.639 711.706 453.639 713.569 453.639 715.386 453.314 716.953 452.663 718.271 452.013 719.59 451.081 720.603 449.868 721.312 448.655 722.021 447.193 722.376 445.482 722.376 443.807 722.376 442.371 722.021 441.176 721.312 439.981 720.603 439.069 719.59 438.442 718.271 437.815 716.953 437.502 715.386 437.502 713.569 437.502 711.706 437.815 710.109 438.442 708.779 439.069 707.449 439.981 706.427 441.176 705.712 442.371 704.997 443.807 704.639 445.482 704.639ZM409.987 701.036 409.987 710.141 415.119 710.141C416.549 710.141 417.706 709.775 418.591 709.043 419.476 708.31 419.918 707.2 419.918 705.712 419.918 704.118 419.473 702.94 418.582 702.179 417.692 701.417 416.537 701.036 415.119 701.036ZM406.822 698.434 415.365 698.434C416.83 698.434 418.149 698.713 419.321 699.269 420.492 699.826 421.418 700.646 422.098 701.73 422.778 702.814 423.117 704.141 423.117 705.712 423.117 707.247 422.778 708.536 422.098 709.579 421.418 710.622 420.492 711.413 419.321 711.952 418.149 712.491 416.83 712.761 415.365 712.761L409.987 712.761 409.987 722.095 406.822 722.095Z" stroke="#000000" stroke-width="2" stroke-linecap="butt" stroke-linejoin="round" stroke-miterlimit="10" stroke-opacity="1" fill="#FFFFFF" fill-rule="evenodd" fill-opacity="1"/><text fill="#000000" fill-opacity="0" font-family="Arial,Arial_MSFontService,Arial" font-size="23.959" direction="ltr" writing-mode="lr-tb" x="406.822" y="719.398">Proc </text><path d="M434.447 753.055 434.447 761.458 439.579 761.458C440.575 761.458 441.495 761.332 442.339 761.08 443.183 760.828 443.857 760.383 444.361 759.744 444.865 759.105 445.116 758.223 445.116 757.098 445.116 755.739 444.624 754.725 443.64 754.057 442.656 753.389 441.302 753.055 439.579 753.055ZM434.447 743.036 434.447 750.489 438.859 750.489C440.382 750.489 441.545 750.14 442.348 749.443 443.151 748.746 443.552 747.805 443.552 746.622 443.552 745.825 443.37 745.16 443.007 744.627 442.644 744.094 442.114 743.695 441.416 743.431 440.719 743.168 439.866 743.036 438.859 743.036ZM431.283 740.434 438.876 740.434C441.255 740.434 443.157 740.915 444.58 741.876 446.004 742.837 446.716 744.302 446.716 746.27 446.716 747.513 446.367 748.62 445.67 749.593 444.973 750.565 444.05 751.198 442.902 751.491 444.542 751.761 445.849 752.414 446.822 753.451 447.794 754.488 448.281 755.768 448.281 757.292 448.281 758.721 447.964 759.943 447.331 760.957 446.699 761.971 445.743 762.747 444.466 763.286 443.189 763.825 441.577 764.095 439.632 764.095L431.283 764.095Z" stroke="#000000" stroke-width="2" stroke-linecap="butt" stroke-linejoin="round" stroke-miterlimit="10" stroke-opacity="1" fill="#FFFFFF" fill-rule="evenodd" fill-opacity="1"/><text fill="#000000" fill-opacity="0" font-family="Arial,Arial_MSFontService,Arial" font-size="23.6602" direction="ltr" writing-mode="lr-tb" x="431.283" y="761.137">B</text><rect x="381.5" y="820.5" width="116" height="150" stroke="#042433" stroke-width="3" stroke-linecap="butt" stroke-linejoin="miter" stroke-miterlimit="8" stroke-opacity="1" fill="#F6C6AD" fill-opacity="1"/><path d="M445.482 870.743C444.252 870.743 443.276 871.027 442.556 871.595 441.835 872.164 441.316 872.946 441 873.942 440.684 874.938 440.525 876.069 440.525 877.335 440.525 878.577 440.684 879.687 441 880.666 441.316 881.644 441.835 882.412 442.556 882.968 443.276 883.525 444.252 883.803 445.482 883.803 446.748 883.803 447.756 883.525 448.506 882.968 449.256 882.412 449.795 881.644 450.123 880.666 450.451 879.687 450.615 878.577 450.615 877.335 450.615 876.069 450.451 874.938 450.123 873.942 449.795 872.946 449.256 872.164 448.506 871.595 447.756 871.027 446.748 870.743 445.482 870.743ZM435.168 868.528 435.519 868.528 435.519 871.217 435.115 871.217C434.26 871.217 433.51 871.329 432.865 871.551 432.221 871.774 431.658 872.082 431.178 872.474 430.697 872.867 430.269 873.321 429.894 873.836L429.894 885.86 426.959 885.86 426.959 868.739 429.719 868.739 429.824 871.657C430.305 870.766 430.972 870.022 431.828 869.424 432.683 868.827 433.797 868.528 435.168 868.528ZM465.18 868.44C466.504 868.44 467.696 868.657 468.757 869.09 469.817 869.524 470.664 870.177 471.297 871.05 471.93 871.923 472.264 873.028 472.299 874.364L469.398 874.364C469.328 873.262 468.93 872.395 468.203 871.762 467.477 871.129 466.486 870.813 465.232 870.813 463.568 870.813 462.326 871.384 461.506 872.527 460.686 873.669 460.275 875.272 460.275 877.335 460.275 878.706 460.457 879.869 460.82 880.824 461.184 881.779 461.734 882.511 462.473 883.021 463.211 883.531 464.131 883.786 465.232 883.786 466.486 883.786 467.506 883.461 468.291 882.81 469.076 882.16 469.486 881.208 469.522 879.954L472.422 879.954C472.387 881.336 472.05 882.488 471.411 883.408 470.773 884.328 469.911 885.016 468.827 885.473 467.743 885.93 466.527 886.159 465.18 886.159 463.633 886.159 462.262 885.834 461.066 885.183 459.871 884.533 458.937 883.554 458.263 882.248 457.589 880.941 457.252 879.303 457.252 877.335 457.252 875.366 457.583 873.722 458.245 872.404 458.907 871.086 459.833 870.095 461.023 869.433 462.212 868.771 463.598 868.44 465.18 868.44ZM445.482 868.405C447.193 868.405 448.655 868.762 449.868 869.477 451.081 870.192 452.013 871.214 452.663 872.544 453.314 873.875 453.639 875.471 453.639 877.335 453.639 879.151 453.314 880.718 452.663 882.037 452.013 883.355 451.081 884.369 449.868 885.078 448.655 885.787 447.193 886.141 445.482 886.141 443.807 886.141 442.371 885.787 441.176 885.078 439.981 884.369 439.069 883.355 438.442 882.037 437.815 880.718 437.502 879.151 437.502 877.335 437.502 875.471 437.815 873.875 438.442 872.544 439.069 871.214 439.981 870.192 441.176 869.477 442.371 868.762 443.807 868.405 445.482 868.405ZM409.987 864.801 409.987 873.907 415.119 873.907C416.549 873.907 417.706 873.541 418.591 872.808 419.476 872.076 419.918 870.965 419.918 869.477 419.918 867.883 419.473 866.706 418.582 865.944 417.692 865.182 416.537 864.801 415.119 864.801ZM406.822 862.2 415.365 862.2C416.83 862.2 418.149 862.478 419.321 863.035 420.492 863.591 421.418 864.412 422.098 865.496 422.778 866.58 423.117 867.907 423.117 869.477 423.117 871.012 422.778 872.301 422.098 873.344 421.418 874.387 420.492 875.178 419.321 875.717 418.149 876.256 416.83 876.526 415.365 876.526L409.987 876.526 409.987 885.86 406.822 885.86Z" stroke="#000000" stroke-width="2" stroke-linecap="butt" stroke-linejoin="round" stroke-miterlimit="10" stroke-opacity="1" fill="#FFFFFF" fill-rule="evenodd" fill-opacity="1"/><text fill="#000000" fill-opacity="0" font-family="Arial,Arial_MSFontService,Arial" font-size="23.959" direction="ltr" writing-mode="lr-tb" x="406.822" y="883.164">Proc </text><path d="M439.742 903.883C441.36 903.883 442.886 904.165 444.321 904.727 445.757 905.29 446.952 906.148 447.907 907.302 448.862 908.457 449.422 909.913 449.586 911.67L446.404 911.67C446.264 910.487 445.868 909.511 445.218 908.744 444.568 907.976 443.765 907.405 442.81 907.03 441.855 906.655 440.832 906.467 439.742 906.467 437.844 906.467 436.306 906.901 435.128 907.768 433.95 908.635 433.092 909.79 432.553 911.231 432.014 912.672 431.744 914.278 431.744 916.047 431.744 917.805 432.014 919.405 432.553 920.846 433.092 922.288 433.95 923.433 435.128 924.283 436.306 925.132 437.844 925.557 439.742 925.557 441.664 925.557 443.223 925.083 444.418 924.133 445.613 923.184 446.305 921.766 446.492 919.879L449.692 919.879C449.504 921.743 448.959 923.287 448.057 924.511 447.154 925.736 445.988 926.653 444.559 927.262 443.129 927.872 441.524 928.176 439.742 928.176 437.293 928.176 435.231 927.661 433.555 926.629 431.879 925.598 430.611 924.174 429.749 922.358 428.888 920.542 428.457 918.438 428.457 916.047 428.457 913.657 428.888 911.547 429.749 909.719 430.611 907.891 431.879 906.461 433.555 905.43 435.231 904.399 437.293 903.883 439.742 903.883Z" stroke="#000000" stroke-width="2" stroke-linecap="butt" stroke-linejoin="round" stroke-miterlimit="10" stroke-opacity="1" fill="#FFFFFF" fill-rule="evenodd" fill-opacity="1"/><text fill="#000000" fill-opacity="0" font-family="Arial,Arial_MSFontService,Arial" font-size="24.293" direction="ltr" writing-mode="lr-tb" x="428.457" y="925.14">C</text><path d="M276 56.5 276 924.469 273 924.469 273 56.5ZM285.811 907.198 274.5 927.558 263.189 907.198 263.189 907.198C262.787 906.474 263.048 905.561 263.772 905.158 264.496 904.756 265.409 905.017 265.811 905.741L265.811 905.741 275.811 923.741 273.189 923.741 283.189 905.741C283.591 905.017 284.504 904.756 285.229 905.158 285.953 905.561 286.214 906.474 285.811 907.198Z" fill="#156082" fill-rule="nonzero" fill-opacity="1"/><text fill="#000000" fill-opacity="1" font-family="Aptos,Aptos_MSFontService,Arial" font-style="normal" font-variant="normal" font-weight="400" font-stretch="normal" font-size="36" text-anchor="start" direction="ltr" writing-mode="lr-tb" unicode-bidi="normal" text-decoration="none" transform="matrix(6.12323e-17 1 -1 6.12323e-17 237.131 64)">Time</text><path d="M437 966.5 437 978.5 434 978.5 434 966.5ZM437 987.5 437 999.5 434 999.5 434 987.5ZM437 1008.5 437 1020.5 434 1020.5 434 1008.5ZM437 1029.5 437 1041.5 434 1041.5 434 1029.5ZM446.811 1032.26 435.5 1052.62 424.189 1032.26C423.787 1031.53 424.047 1030.62 424.772 1030.22 425.496 1029.81 426.409 1030.08 426.811 1030.8L436.811 1048.8 434.189 1048.8 444.189 1030.8C444.591 1030.08 445.504 1029.81 446.229 1030.22 446.953 1030.62 447.214 1031.53 446.811 1032.26Z" fill="#156082" fill-rule="nonzero" fill-opacity="1"/><path d="M414.5 318C414.5 311.096 425.693 305.5 439.5 305.5 453.307 305.5 464.5 311.096 464.5 318 464.5 324.904 453.307 330.5 439.5 330.5 425.693 330.5 414.5 324.904 414.5 318Z" stroke="#042433" stroke-width="3" stroke-linecap="butt" stroke-linejoin="miter" stroke-miterlimit="8" stroke-opacity="1" fill="#156082" fill-rule="evenodd" fill-opacity="1"/><path d="M414.5 483.5C414.5 476.32 425.693 470.5 439.5 470.5 453.307 470.5 464.5 476.32 464.5 483.5 464.5 490.68 453.307 496.5 439.5 496.5 425.693 496.5 414.5 490.68 414.5 483.5Z" stroke="#042433" stroke-width="3" stroke-linecap="butt" stroke-linejoin="miter" stroke-miterlimit="8" stroke-opacity="1" fill="#156082" fill-rule="evenodd" fill-opacity="1"/><path d="M414.5 648.5C414.5 641.32 425.693 635.5 439.5 635.5 453.307 635.5 464.5 641.32 464.5 648.5 464.5 655.68 453.307 661.5 439.5 661.5 425.693 661.5 414.5 655.68 414.5 648.5Z" stroke="#042433" stroke-width="3" stroke-linecap="butt" stroke-linejoin="miter" stroke-miterlimit="8" stroke-opacity="1" fill="#156082" fill-rule="evenodd" fill-opacity="1"/><path d="M414.5 813.5C414.5 806.32 425.693 800.5 439.5 800.5 453.307 800.5 464.5 806.32 464.5 813.5 464.5 820.68 453.307 826.5 439.5 826.5 425.693 826.5 414.5 820.68 414.5 813.5Z" stroke="#042433" stroke-width="3" stroke-linecap="butt" stroke-linejoin="miter" stroke-miterlimit="8" stroke-opacity="1" fill="#156082" fill-rule="evenodd" fill-opacity="1"/><path d="M414.5 973C414.5 966.096 425.693 960.5 439.5 960.5 453.307 960.5 464.5 966.096 464.5 973 464.5 979.904 453.307 985.5 439.5 985.5 425.693 985.5 414.5 979.904 414.5 973Z" stroke="#042433" stroke-width="3" stroke-linecap="butt" stroke-linejoin="miter" stroke-miterlimit="8" stroke-opacity="1" fill="#156082" fill-rule="evenodd" fill-opacity="1"/><path d="M0.698799-1.32728 11.3171 4.26311 9.91947 6.91767-0.698799 1.32728ZM19.2808 8.4559 29.899 14.0463 28.5014 16.7009 17.8832 11.1105ZM37.8627 18.2391 48.481 23.8295 47.0834 26.484 36.4651 20.8937ZM56.4447 28.0223 67.0629 33.6127 65.6653 36.2672 55.0471 30.6768ZM75.0266 37.8055 85.6449 43.3958 84.2473 46.0504 73.629 40.46ZM93.6086 47.5886 104.227 53.179 102.829 55.8336 92.211 50.2432ZM112.191 57.3718 122.809 62.9622 121.411 65.6168 110.793 60.0264ZM130.773 67.155 141.391 72.7454 139.993 75.4 129.375 69.8096ZM149.354 76.9382 157.879 81.4262 156.481 84.0808 147.957 79.5928ZM147.166 64.6981 159.912 84.192 136.627 84.7157C135.799 84.7343 135.112 84.078 135.094 83.2498 135.075 82.4216 135.731 81.7351 136.56 81.7165L157.146 81.2535 155.924 83.574 144.655 66.3398C144.202 65.6465 144.396 64.7169 145.09 64.2635 145.783 63.8101 146.713 64.0047 147.166 64.6981Z" fill="#156082" fill-rule="nonzero" fill-opacity="1" transform="matrix(-1 0 0 1 617.414 224.5)"/><text fill="#000000" fill-opacity="1" font-family="Aptos,Aptos_MSFontService,Arial" font-style="normal" font-variant="normal" font-weight="400" font-stretch="normal" font-size="36" text-anchor="start" direction="ltr" writing-mode="lr-tb" unicode-bidi="normal" text-decoration="none" transform="translate(645.951 217)">Task</text><text fill="#000000" fill-opacity="1" font-family="Aptos,Aptos_MSFontService,Arial" font-style="normal" font-variant="normal" font-weight="400" font-stretch="normal" font-size="36" text-anchor="start" direction="ltr" writing-mode="lr-tb" unicode-bidi="normal" text-decoration="none" transform="translate(627.761 259)">Switch</text></g></g></svg>
